<svg xmlns="http://www.w3.org/2000/svg" xmlns:xlink="http://www.w3.org/1999/xlink" version="1.1" x="0px" y="0px" viewBox="0 0 100 125" enable-background="new 0 0 100 100" xml:space="preserve"><rect x="26.21" y="7.989" fill="none" width="19.392" height="19.391"/><path fill="none" d="M67.495,70.679c0,0.091,0,0.181,0,0.272c0,3.201-4.962,3.201-4.962,0c0-0.091,0-0.182,0-0.272  c0-5.808,0-11.614,0-17.421l-6.164-2.605c0,2.491,0,4.982,0,7.473c0,0.061,0,0.122,0,0.183c0,3.202-4.963,3.202-4.963,0  c0-0.061,0-0.122,0-0.183c0-3.191,0-6.381,0-9.571L26.2,37.9v49.457c0,2.567,2.195,4.654,4.893,4.654H68.9  c2.837,0,4.898-2.27,4.898-5.398V58.02l-6.304-2.665C67.495,60.463,67.495,65.571,67.495,70.679z"/><path fill="#fff" d="M48.507,5.011H23.23V30.36h25.276V5.011z M45.602,27.38H26.21V7.989h19.392V27.38z"/><path fill="#fff" d="M76.611,11.291C76.611,7.815,73.818,5,70.379,5H51.484v25.331h25.127V11.291z"/><path fill="#fff" d="M51.428,33.171v11.956c-0.005,0.066-0.019,0.126-0.02,0.195l-2.827-1.195V33.171H23.23v0.241l-0.008-0.003  v53.949c0,4.209,3.529,7.632,7.87,7.632H68.9c4.492,0,7.877-3.601,7.877-8.376V58.522v-2.477V33.171H51.428z M73.799,86.613  c0,3.128-2.062,5.398-4.898,5.398H31.093c-2.697,0-4.893-2.087-4.893-4.654V37.9l25.206,10.654c0,3.19,0,6.38,0,9.571  c0,0.061,0,0.122,0,0.183c0,3.202,4.963,3.202,4.963,0c0-0.062,0-0.123,0-0.183c0-2.491,0-4.982,0-7.473l6.164,2.605  c0,5.807,0,11.614,0,17.421c0,0.091,0,0.182,0,0.272c0,3.201,4.962,3.201,4.962,0c0-0.092,0-0.181,0-0.272  c0-5.108,0-10.216,0-15.324l6.304,2.665V86.613z"/></svg>
